%TF.GenerationSoftware,KiCad,Pcbnew,7.0.7*%
%TF.CreationDate,2023-09-16T22:54:16+02:00*%
%TF.ProjectId,AstroDebugMotor,41737472-6f44-4656-9275-674d6f746f72,01*%
%TF.SameCoordinates,Original*%
%TF.FileFunction,Soldermask,Bot*%
%TF.FilePolarity,Negative*%
%FSLAX46Y46*%
G04 Gerber Fmt 4.6, Leading zero omitted, Abs format (unit mm)*
G04 Created by KiCad (PCBNEW 7.0.7) date 2023-09-16 22:54:16*
%MOMM*%
%LPD*%
G01*
G04 APERTURE LIST*
G04 Aperture macros list*
%AMRoundRect*
0 Rectangle with rounded corners*
0 $1 Rounding radius*
0 $2 $3 $4 $5 $6 $7 $8 $9 X,Y pos of 4 corners*
0 Add a 4 corners polygon primitive as box body*
4,1,4,$2,$3,$4,$5,$6,$7,$8,$9,$2,$3,0*
0 Add four circle primitives for the rounded corners*
1,1,$1+$1,$2,$3*
1,1,$1+$1,$4,$5*
1,1,$1+$1,$6,$7*
1,1,$1+$1,$8,$9*
0 Add four rect primitives between the rounded corners*
20,1,$1+$1,$2,$3,$4,$5,0*
20,1,$1+$1,$4,$5,$6,$7,0*
20,1,$1+$1,$6,$7,$8,$9,0*
20,1,$1+$1,$8,$9,$2,$3,0*%
G04 Aperture macros list end*
%ADD10R,1.700000X1.700000*%
%ADD11O,1.700000X1.700000*%
%ADD12RoundRect,0.750000X0.750000X2.750000X-0.750000X2.750000X-0.750000X-2.750000X0.750000X-2.750000X0*%
%ADD13R,3.200000X3.200000*%
%ADD14O,3.200000X3.200000*%
%ADD15R,1.600000X1.600000*%
%ADD16C,1.600000*%
%ADD17R,1.500000X2.500000*%
%ADD18O,1.500000X2.500000*%
%ADD19C,3.000000*%
%ADD20C,2.700000*%
%ADD21C,1.524000*%
%ADD22R,3.500000X3.500000*%
%ADD23RoundRect,0.750000X0.750000X1.000000X-0.750000X1.000000X-0.750000X-1.000000X0.750000X-1.000000X0*%
%ADD24RoundRect,0.875000X0.875000X0.875000X-0.875000X0.875000X-0.875000X-0.875000X0.875000X-0.875000X0*%
%ADD25C,4.000000*%
G04 APERTURE END LIST*
D10*
%TO.C,J18*%
X166075000Y-151000000D03*
D11*
X163535000Y-151000000D03*
X160995000Y-151000000D03*
X158455000Y-151000000D03*
X155915000Y-151000000D03*
%TD*%
D12*
%TO.C,SW1*%
X251000000Y-130000000D03*
X244000000Y-130000000D03*
%TD*%
D10*
%TO.C,J19*%
X184540000Y-157000000D03*
D11*
X182000000Y-157000000D03*
X179460000Y-157000000D03*
X176920000Y-157000000D03*
%TD*%
D13*
%TO.C,D1*%
X232000000Y-114750000D03*
D14*
X252000000Y-114750000D03*
%TD*%
D15*
%TO.C,X2*%
X133380000Y-123810000D03*
D16*
X148620000Y-123810000D03*
X148620000Y-116190000D03*
X133380000Y-116190000D03*
%TD*%
D17*
%TO.C,U4*%
X227000000Y-101770000D03*
D18*
X224460000Y-101770000D03*
X221920000Y-101770000D03*
%TD*%
D15*
%TO.C,C4*%
X192347349Y-140000000D03*
D16*
X195847349Y-140000000D03*
%TD*%
D19*
%TO.C,BT1*%
X203625000Y-75025000D03*
X181025000Y-75025000D03*
%TD*%
D10*
%TO.C,J8*%
X41075000Y-151000000D03*
D11*
X38535000Y-151000000D03*
X35995000Y-151000000D03*
X33455000Y-151000000D03*
X30915000Y-151000000D03*
%TD*%
D20*
%TO.C,F1*%
X223000000Y-135750000D03*
D19*
X223000000Y-147000000D03*
X223000000Y-124500000D03*
%TD*%
D15*
%TO.C,X1*%
X74380000Y-122810000D03*
D16*
X89620000Y-122810000D03*
X89620000Y-115190000D03*
X74380000Y-115190000D03*
%TD*%
D10*
%TO.C,J11*%
X101000000Y-151000000D03*
D11*
X98460000Y-151000000D03*
X95920000Y-151000000D03*
X93380000Y-151000000D03*
X90840000Y-151000000D03*
%TD*%
D10*
%TO.C,J4*%
X80800000Y-105725000D03*
D11*
X80800000Y-108265000D03*
X78260000Y-105725000D03*
X78260000Y-108265000D03*
X75720000Y-105725000D03*
X75720000Y-108265000D03*
X73180000Y-105725000D03*
X73180000Y-108265000D03*
%TD*%
D15*
%TO.C,X3*%
X192380000Y-123810000D03*
D16*
X207620000Y-123810000D03*
X207620000Y-116190000D03*
X192380000Y-116190000D03*
%TD*%
D15*
%TO.C,C2*%
X72347349Y-139000000D03*
D16*
X75847349Y-139000000D03*
%TD*%
D10*
%TO.C,J6*%
X41000000Y-157000000D03*
D11*
X38460000Y-157000000D03*
X35920000Y-157000000D03*
X33380000Y-157000000D03*
X30840000Y-157000000D03*
%TD*%
D10*
%TO.C,J9*%
X101000000Y-157000000D03*
D11*
X98460000Y-157000000D03*
X95920000Y-157000000D03*
X93380000Y-157000000D03*
X90840000Y-157000000D03*
%TD*%
D10*
%TO.C,J22*%
X125000000Y-65000000D03*
D11*
X127540000Y-65000000D03*
X125000000Y-67540000D03*
X127540000Y-67540000D03*
%TD*%
D15*
%TO.C,C5*%
X211152651Y-90000000D03*
D16*
X207652651Y-90000000D03*
%TD*%
D21*
%TO.C,U7*%
X138795000Y-94262500D03*
X138795000Y-91722500D03*
X138795000Y-89182500D03*
X138795000Y-86642500D03*
X138795000Y-84102500D03*
%TD*%
D10*
%TO.C,J16*%
X166080000Y-157000000D03*
D11*
X163540000Y-157000000D03*
X161000000Y-157000000D03*
X158460000Y-157000000D03*
X155920000Y-157000000D03*
%TD*%
D10*
%TO.C,J7*%
X59000000Y-151000000D03*
D11*
X56460000Y-151000000D03*
X53920000Y-151000000D03*
X51380000Y-151000000D03*
%TD*%
D22*
%TO.C,X1_PWR1*%
X244000000Y-148042500D03*
D23*
X250000000Y-148042500D03*
D24*
X247000000Y-143342500D03*
%TD*%
D17*
%TO.C,U5*%
X227000000Y-89790000D03*
D18*
X224460000Y-89790000D03*
X221920000Y-89790000D03*
%TD*%
D21*
%TO.C,U3*%
X184700000Y-104220000D03*
X182160000Y-104220000D03*
X179620000Y-104220000D03*
X177080000Y-104220000D03*
X174540000Y-104220000D03*
X172000000Y-104220000D03*
X169460000Y-104220000D03*
X166920000Y-104220000D03*
X164380000Y-104220000D03*
X161840000Y-104220000D03*
X159300000Y-104220000D03*
X184700000Y-139780000D03*
X182160000Y-139780000D03*
X179620000Y-139780000D03*
X177080000Y-139780000D03*
X174540000Y-139780000D03*
X172000000Y-139780000D03*
X169460000Y-139780000D03*
X166920000Y-139780000D03*
X164380000Y-139780000D03*
X161840000Y-139780000D03*
X159300000Y-139780000D03*
%TD*%
D10*
%TO.C,J1*%
X59000000Y-157000000D03*
D11*
X56460000Y-157000000D03*
X53920000Y-157000000D03*
X51380000Y-157000000D03*
%TD*%
D10*
%TO.C,J3*%
X211040000Y-152500000D03*
D11*
X208500000Y-152500000D03*
X205960000Y-152500000D03*
X203420000Y-152500000D03*
X200880000Y-152500000D03*
%TD*%
D10*
%TO.C,J14*%
X34000000Y-70540000D03*
D11*
X34000000Y-68000000D03*
X34000000Y-65460000D03*
X34000000Y-62920000D03*
%TD*%
D10*
%TO.C,J23*%
X247500000Y-78380000D03*
D11*
X247500000Y-80920000D03*
X247500000Y-83460000D03*
X247500000Y-86000000D03*
X247500000Y-88540000D03*
%TD*%
D10*
%TO.C,J5*%
X211040000Y-157000000D03*
D11*
X208500000Y-157000000D03*
X205960000Y-157000000D03*
X203420000Y-157000000D03*
X200880000Y-157000000D03*
%TD*%
D10*
%TO.C,J13*%
X119000000Y-151000000D03*
D11*
X116460000Y-151000000D03*
X113920000Y-151000000D03*
X111380000Y-151000000D03*
%TD*%
D10*
%TO.C,J12*%
X119000000Y-157000000D03*
D11*
X116460000Y-157000000D03*
X113920000Y-157000000D03*
X111380000Y-157000000D03*
%TD*%
D10*
%TO.C,J15*%
X41000000Y-70800000D03*
D11*
X41000000Y-68260000D03*
X41000000Y-65720000D03*
X41000000Y-63180000D03*
%TD*%
D21*
%TO.C,U6*%
X138750000Y-63850000D03*
X138750000Y-66390000D03*
X138750000Y-68930000D03*
X138750000Y-71470000D03*
D25*
X138750000Y-57500000D03*
X138750000Y-77820000D03*
X169230000Y-57500000D03*
X169230000Y-77820000D03*
%TD*%
D21*
%TO.C,U2*%
X125540000Y-103440000D03*
X123000000Y-103440000D03*
X120460000Y-103440000D03*
X117920000Y-103440000D03*
X115380000Y-103440000D03*
X112840000Y-103440000D03*
X110300000Y-103440000D03*
X107760000Y-103440000D03*
X105220000Y-103440000D03*
X102680000Y-103440000D03*
X100140000Y-103440000D03*
X125540000Y-139000000D03*
X123000000Y-139000000D03*
X120460000Y-139000000D03*
X117920000Y-139000000D03*
X115380000Y-139000000D03*
X112840000Y-139000000D03*
X110300000Y-139000000D03*
X107760000Y-139000000D03*
X105220000Y-139000000D03*
X102680000Y-139000000D03*
X100140000Y-139000000D03*
%TD*%
%TO.C,U1*%
X66080000Y-103440000D03*
X63540000Y-103440000D03*
X61000000Y-103440000D03*
X58460000Y-103440000D03*
X55920000Y-103440000D03*
X53380000Y-103440000D03*
X50840000Y-103440000D03*
X48300000Y-103440000D03*
X45760000Y-103440000D03*
X43220000Y-103440000D03*
X40680000Y-103440000D03*
X66080000Y-139000000D03*
X63540000Y-139000000D03*
X61000000Y-139000000D03*
X58460000Y-139000000D03*
X55920000Y-139000000D03*
X53380000Y-139000000D03*
X50840000Y-139000000D03*
X48300000Y-139000000D03*
X45760000Y-139000000D03*
X43220000Y-139000000D03*
X40680000Y-139000000D03*
%TD*%
D10*
%TO.C,J21*%
X124725000Y-74725000D03*
D11*
X127265000Y-74725000D03*
X124725000Y-77265000D03*
X127265000Y-77265000D03*
%TD*%
D10*
%TO.C,J20*%
X183800000Y-151000000D03*
D11*
X181260000Y-151000000D03*
X178720000Y-151000000D03*
X176180000Y-151000000D03*
%TD*%
D15*
%TO.C,C1*%
X198152651Y-95000000D03*
D16*
X194652651Y-95000000D03*
%TD*%
D10*
%TO.C,J17*%
X198800000Y-105725000D03*
D11*
X198800000Y-108265000D03*
X196260000Y-105725000D03*
X196260000Y-108265000D03*
X193720000Y-105725000D03*
X193720000Y-108265000D03*
X191180000Y-105725000D03*
X191180000Y-108265000D03*
%TD*%
D10*
%TO.C,J24*%
X252625000Y-78425000D03*
D11*
X252625000Y-80965000D03*
X252625000Y-83505000D03*
X252625000Y-86045000D03*
X252625000Y-88585000D03*
%TD*%
D10*
%TO.C,J10*%
X139540000Y-105725000D03*
D11*
X139540000Y-108265000D03*
X137000000Y-105725000D03*
X137000000Y-108265000D03*
X134460000Y-105725000D03*
X134460000Y-108265000D03*
X131920000Y-105725000D03*
X131920000Y-108265000D03*
%TD*%
D15*
%TO.C,C3*%
X132347349Y-139000000D03*
D16*
X135847349Y-139000000D03*
%TD*%
D10*
%TO.C,J2*%
X56680000Y-71000000D03*
D11*
X56680000Y-68460000D03*
X59220000Y-71000000D03*
X59220000Y-68460000D03*
X61760000Y-71000000D03*
X61760000Y-68460000D03*
X64300000Y-71000000D03*
X64300000Y-68460000D03*
X66840000Y-71000000D03*
X66840000Y-68460000D03*
X69380000Y-71000000D03*
X69380000Y-68460000D03*
X71920000Y-71000000D03*
X71920000Y-68460000D03*
X74460000Y-71000000D03*
X74460000Y-68460000D03*
X77000000Y-71000000D03*
X77000000Y-68460000D03*
X79540000Y-71000000D03*
X79540000Y-68460000D03*
X82080000Y-71000000D03*
X82080000Y-68460000D03*
X84620000Y-71000000D03*
X84620000Y-68460000D03*
X87160000Y-71000000D03*
X87160000Y-68460000D03*
X89700000Y-71000000D03*
X89700000Y-68460000D03*
X92240000Y-71000000D03*
X92240000Y-68460000D03*
X94780000Y-71000000D03*
X94780000Y-68460000D03*
X97320000Y-71000000D03*
X97320000Y-68460000D03*
X99860000Y-71000000D03*
X99860000Y-68460000D03*
X102400000Y-71000000D03*
X102400000Y-68460000D03*
X104940000Y-71000000D03*
X104940000Y-68460000D03*
%TD*%
M02*
