M48
; DRILL file {KiCad 7.0.7} date Sat Sep 16 22:54:16 2023
; FORMAT={-:-/ absolute / inch / decimal}
; #@! TF.CreationDate,2023-09-16T22:54:16+02:00
; #@! TF.GenerationSoftware,Kicad,Pcbnew,7.0.7
; #@! TF.FileFunction,Plated,1,2,PTH
FMAT,2
INCH
; #@! TA.AperFunction,Plated,PTH,ViaDrill
T1C0.0157
; #@! TA.AperFunction,Plated,PTH,ComponentDrill
T2C0.0300
; #@! TA.AperFunction,Plated,PTH,ComponentDrill
T3C0.0315
; #@! TA.AperFunction,Plated,PTH,ComponentDrill
T4C0.0394
; #@! TA.AperFunction,Plated,PTH,ComponentDrill
T5C0.0400
; #@! TA.AperFunction,Plated,PTH,ComponentDrill
T6C0.0512
; #@! TA.AperFunction,Plated,PTH,ComponentDrill
T7C0.0630
; #@! TA.AperFunction,Plated,PTH,ComponentDrill
T8C0.0748
; #@! TA.AperFunction,Plated,PTH,ComponentDrill
T9C0.1250
%
G90
G05
T1
X1.5748Y-3.3071
X1.811Y-3.1102
X1.8898Y-3.0315
X2.0472Y-2.9528
X2.5852Y-3.3726
X2.9528Y-3.622
X4.0157Y-2.2835
X4.1732Y-2.3622
X4.3307Y-2.4409
X4.8814Y-3.4651
X5.2105Y-5.2816
X6.063Y-4.8819
X6.4567Y-4.5669
X6.7717Y-4.5669
X7.0472Y-4.5669
X7.5719Y-2.9537
T2
X5.4626Y-2.5138
X5.4626Y-2.6138
X5.4626Y-2.7138
X5.4626Y-2.8138
X5.4644Y-3.3111
X5.4644Y-3.4111
X5.4644Y-3.5111
X5.4644Y-3.6111
X5.4644Y-3.7111
T3
X2.8483Y-5.4724
X2.9283Y-4.535
X2.9283Y-4.835
X2.9861Y-5.4724
X3.5283Y-4.535
X3.5283Y-4.835
X5.2105Y-5.4724
X5.2512Y-4.5744
X5.2512Y-4.8744
X5.3483Y-5.4724
X5.8512Y-4.5744
X5.8512Y-4.8744
X7.5727Y-5.5118
X7.574Y-4.5744
X7.574Y-4.8744
X7.6635Y-3.7402
X7.7105Y-5.5118
X7.8013Y-3.7402
X8.174Y-4.5744
X8.174Y-4.8744
X8.1753Y-3.5433
X8.3131Y-3.5433
T4
X1.2142Y-6.1811
X1.2171Y-5.9449
X1.3142Y-6.1811
X1.3171Y-5.9449
X1.3386Y-2.4772
X1.3386Y-2.5772
X1.3386Y-2.6772
X1.3386Y-2.7772
X1.4142Y-6.1811
X1.4171Y-5.9449
X1.5142Y-6.1811
X1.5171Y-5.9449
X1.6142Y-2.4874
X1.6142Y-2.5874
X1.6142Y-2.6874
X1.6142Y-2.7874
X1.6142Y-6.1811
X1.6171Y-5.9449
X2.0228Y-5.9449
X2.0228Y-6.1811
X2.1228Y-5.9449
X2.1228Y-6.1811
X2.2228Y-5.9449
X2.2228Y-6.1811
X2.2315Y-2.6953
X2.2315Y-2.7953
X2.3228Y-5.9449
X2.3228Y-6.1811
X2.3315Y-2.6953
X2.3315Y-2.7953
X2.4315Y-2.6953
X2.4315Y-2.7953
X2.5315Y-2.6953
X2.5315Y-2.7953
X2.6315Y-2.6953
X2.6315Y-2.7953
X2.7315Y-2.6953
X2.7315Y-2.7953
X2.8315Y-2.6953
X2.8315Y-2.7953
X2.8811Y-4.1624
X2.8811Y-4.2624
X2.9315Y-2.6953
X2.9315Y-2.7953
X2.9811Y-4.1624
X2.9811Y-4.2624
X3.0315Y-2.6953
X3.0315Y-2.7953
X3.0811Y-4.1624
X3.0811Y-4.2624
X3.1315Y-2.6953
X3.1315Y-2.7953
X3.1811Y-4.1624
X3.1811Y-4.2624
X3.2315Y-2.6953
X3.2315Y-2.7953
X3.3315Y-2.6953
X3.3315Y-2.7953
X3.4315Y-2.6953
X3.4315Y-2.7953
X3.5315Y-2.6953
X3.5315Y-2.7953
X3.5764Y-5.9449
X3.5764Y-6.1811
X3.6315Y-2.6953
X3.6315Y-2.7953
X3.6764Y-5.9449
X3.6764Y-6.1811
X3.7315Y-2.6953
X3.7315Y-2.7953
X3.7764Y-5.9449
X3.7764Y-6.1811
X3.8315Y-2.6953
X3.8315Y-2.7953
X3.8764Y-5.9449
X3.8764Y-6.1811
X3.9315Y-2.6953
X3.9315Y-2.7953
X3.9764Y-5.9449
X3.9764Y-6.1811
X4.0315Y-2.6953
X4.0315Y-2.7953
X4.1315Y-2.6953
X4.1315Y-2.7953
X4.385Y-5.9449
X4.385Y-6.1811
X4.485Y-5.9449
X4.485Y-6.1811
X4.585Y-5.9449
X4.585Y-6.1811
X4.685Y-5.9449
X4.685Y-6.1811
X4.9104Y-2.9419
X4.9104Y-3.0419
X4.9213Y-2.5591
X4.9213Y-2.6591
X5.0104Y-2.9419
X5.0104Y-3.0419
X5.0213Y-2.5591
X5.0213Y-2.6591
X5.1937Y-4.1624
X5.1937Y-4.2624
X5.2937Y-4.1624
X5.2937Y-4.2624
X5.3937Y-4.1624
X5.3937Y-4.2624
X5.4937Y-4.1624
X5.4937Y-4.2624
X6.1384Y-5.9449
X6.1386Y-6.1811
X6.2384Y-5.9449
X6.2386Y-6.1811
X6.3384Y-5.9449
X6.3386Y-6.1811
X6.4384Y-5.9449
X6.4386Y-6.1811
X6.5384Y-5.9449
X6.5386Y-6.1811
X6.9362Y-5.9449
X6.9654Y-6.1811
X7.0362Y-5.9449
X7.0654Y-6.1811
X7.1362Y-5.9449
X7.1654Y-6.1811
X7.2362Y-5.9449
X7.2654Y-6.1811
X7.5268Y-4.1624
X7.5268Y-4.2624
X7.6268Y-4.1624
X7.6268Y-4.2624
X7.7268Y-4.1624
X7.7268Y-4.2624
X7.8268Y-4.1624
X7.8268Y-4.2624
X7.9087Y-6.0039
X7.9087Y-6.1811
X8.0087Y-6.0039
X8.0087Y-6.1811
X8.1087Y-6.0039
X8.1087Y-6.1811
X8.2087Y-6.0039
X8.2087Y-6.1811
X8.3087Y-6.0039
X8.3087Y-6.1811
X8.737Y-3.535
X8.737Y-4.0067
X8.837Y-3.535
X8.837Y-4.0067
X8.937Y-3.535
X8.937Y-4.0067
X9.7441Y-3.0858
X9.7441Y-3.1858
X9.7441Y-3.2858
X9.7441Y-3.3858
X9.7441Y-3.4858
X9.9459Y-3.0876
X9.9459Y-3.1876
X9.9459Y-3.2876
X9.9459Y-3.3876
X9.9459Y-3.4876
T5
X1.6016Y-4.0724
X1.6016Y-5.4724
X1.7016Y-4.0724
X1.7016Y-5.4724
X1.8016Y-4.0724
X1.8016Y-5.4724
X1.9016Y-4.0724
X1.9016Y-5.4724
X2.0016Y-4.0724
X2.0016Y-5.4724
X2.1016Y-4.0724
X2.1016Y-5.4724
X2.2016Y-4.0724
X2.2016Y-5.4724
X2.3016Y-4.0724
X2.3016Y-5.4724
X2.4016Y-4.0724
X2.4016Y-5.4724
X2.5016Y-4.0724
X2.5016Y-5.4724
X2.6016Y-4.0724
X2.6016Y-5.4724
X3.9425Y-4.0724
X3.9425Y-5.4724
X4.0425Y-4.0724
X4.0425Y-5.4724
X4.1425Y-4.0724
X4.1425Y-5.4724
X4.2425Y-4.0724
X4.2425Y-5.4724
X4.3425Y-4.0724
X4.3425Y-5.4724
X4.4425Y-4.0724
X4.4425Y-5.4724
X4.5425Y-4.0724
X4.5425Y-5.4724
X4.6425Y-4.0724
X4.6425Y-5.4724
X4.7425Y-4.0724
X4.7425Y-5.4724
X4.8425Y-4.0724
X4.8425Y-5.4724
X4.9425Y-4.0724
X4.9425Y-5.4724
X6.2717Y-4.1031
X6.2717Y-5.5031
X6.3717Y-4.1031
X6.3717Y-5.5031
X6.4717Y-4.1031
X6.4717Y-5.5031
X6.5717Y-4.1031
X6.5717Y-5.5031
X6.6717Y-4.1031
X6.6717Y-5.5031
X6.7717Y-4.1031
X6.7717Y-5.5031
X6.8717Y-4.1031
X6.8717Y-5.5031
X6.9717Y-4.1031
X6.9717Y-5.5031
X7.0717Y-4.1031
X7.0717Y-5.5031
X7.1717Y-4.1031
X7.1717Y-5.5031
X7.2717Y-4.1031
X7.2717Y-5.5031
T6
X8.7795Y-4.9016
X8.7795Y-5.7874
T7
X9.1339Y-4.5177
X9.9213Y-4.5177
T8
X7.127Y-2.9537
X8.0167Y-2.9537
T9
X5.4626Y-2.2638
X5.4626Y-3.0638
X6.6626Y-2.2638
X6.6626Y-3.0638
T4
G00X9.6063Y-5.1969
M15
G01X9.6063Y-5.0394
M16
G05
G00X9.6063Y-5.8678
M15
G01X9.6063Y-5.7891
M16
G05
G00X9.7638Y-5.6434
M15
G01X9.685Y-5.6434
M16
G05
G00X9.8425Y-5.8678
M15
G01X9.8425Y-5.7891
M16
G05
G00X9.8819Y-5.1969
M15
G01X9.8819Y-5.0394
M16
G05
T0
M30
